HIERARCHY
ROOT Hips
{
	OFFSET -30.366390 91.414970 263.936096
	CHANNELS 6 Xposition Yposition Zposition Zrotation Yrotation Xrotation 
	JOINT LeftUpLeg
	{
		OFFSET 0.103456 1.857826 10.548504
		CHANNELS 3 Zrotation Yrotation Xrotation
		JOINT LeftLeg
		{
			OFFSET 43.499996 -0.000038 0.000006
			CHANNELS 3 Zrotation Yrotation Xrotation
			JOINT LeftFoot
			{
				OFFSET 42.372192 0.000011 -0.000004
				CHANNELS 3 Zrotation Yrotation Xrotation
				JOINT LeftToe
				{
					OFFSET 17.300018 0.000006 0.000004
					CHANNELS 3 Zrotation Yrotation Xrotation
					End Site
					{
						OFFSET 0.000000 0.000000 0.000000
					}
				}
			}
		}
	}
	JOINT RightUpLeg
	{
		OFFSET 0.103455 1.857819 -10.548502
		CHANNELS 3 Zrotation Yrotation Xrotation
		JOINT RightLeg
		{
			OFFSET 43.500038 -0.000031 0.000011
			CHANNELS 3 Zrotation Yrotation Xrotation
			JOINT RightFoot
			{
				OFFSET 42.372261 -0.000008 0.000014
				CHANNELS 3 Zrotation Yrotation Xrotation
				JOINT RightToe
				{
					OFFSET 17.299999 -0.000004 0.000004
					CHANNELS 3 Zrotation Yrotation Xrotation
					End Site
					{
						OFFSET 0.000000 0.000000 0.000000
					}
				}
			}
		}
	}
	JOINT Spine
	{
		OFFSET 6.901965 -2.603737 -0.000000
		CHANNELS 3 Zrotation Yrotation Xrotation
		JOINT Spine1
		{
			OFFSET 12.588105 0.000013 0.000001
			CHANNELS 3 Zrotation Yrotation Xrotation
			JOINT Spine2
			{
				OFFSET 12.343203 0.000010 -0.000000
				CHANNELS 3 Zrotation Yrotation Xrotation
				JOINT Neck
				{
					OFFSET 25.832893 -0.000038 0.000001
					CHANNELS 3 Zrotation Yrotation Xrotation
					JOINT Head
					{
						OFFSET 11.766606 0.000028 0.000001
						CHANNELS 3 Zrotation Yrotation Xrotation
						End Site
						{
							OFFSET 0.000000 0.000000 0.000000
						}
					}
				}
				JOINT LeftShoulder
				{
					OFFSET 19.745897 -1.480375 6.000107
					CHANNELS 3 Zrotation Yrotation Xrotation
					JOINT LeftArm
					{
						OFFSET 11.284126 -0.000009 -0.000017
						CHANNELS 3 Zrotation Yrotation Xrotation
						JOINT LeftForeArm
						{
							OFFSET 33.000046 0.000006 0.000030
							CHANNELS 3 Zrotation Yrotation Xrotation
							JOINT LeftHand
							{
								OFFSET 25.200006 0.000034 0.000015
								CHANNELS 3 Zrotation Yrotation Xrotation
								End Site
								{
									OFFSET 0.000000 0.000000 0.000000
								}
							}
						}
					}
				}
				JOINT RightShoulder
				{
					OFFSET 19.746096 -1.480394 -6.000075
					CHANNELS 3 Zrotation Yrotation Xrotation
					JOINT RightArm
					{
						OFFSET 11.284135 -0.000006 -0.000006
						CHANNELS 3 Zrotation Yrotation Xrotation
						JOINT RightForeArm
						{
							OFFSET 33.000095 0.000018 0.000006
							CHANNELS 3 Zrotation Yrotation Xrotation
							JOINT RightHand
							{
								OFFSET 25.199783 0.000116 0.000436
								CHANNELS 3 Zrotation Yrotation Xrotation
								End Site
								{
									OFFSET 0.000000 0.000000 0.000000
								}
							}
						}
					}
				}
			}
		}
	}
}
MOTION
Frames: 5
Frame Time: 0.033333
-30.366390 91.414970 263.936096 88.223060 6.319015 88.805498 -175.835051 -9.202606 173.613956 -18.575239 -2.519609 -2.587283 86.934395 0.933998 -5.141060 21.454555 0.003091 -0.000001 -176.127602 0.315311 176.488536 -17.628706 3.995263 14.952097 85.436480 -9.552443 5.086789 21.454560 -0.003112 -0.000020 6.586457 0.500077 0.390800 3.161729 1.016695 0.792852 2.843628 1.021585 0.786766 0.600710 -1.646363 -0.413962 -3.705749 0.532378 -0.983597 -81.980841 -79.250063 -100.798217 -7.137524 3.957254 -25.647321 -15.036750 -15.142258 1.021233 17.932510 13.761850 0.856836 24.557161 86.262619 -153.740714 -0.383728 -9.838996 31.079598 -21.683880 20.442039 -1.454690 19.590719 -14.712900 -24.165923 
-30.366261 91.415604 263.931488 88.223060 6.314628 88.802404 -175.838999 -9.202598 173.618286 -18.569787 -2.522300 -2.591431 86.930693 0.936919 -5.140252 21.454555 0.003096 0.000002 -176.133858 0.315312 176.485955 -17.625506 3.995267 14.952088 85.434670 -9.552440 5.084911 21.454557 -0.003117 -0.000018 6.586455 0.500066 0.390796 3.161732 1.015751 0.792850 2.843624 1.020631 0.786770 0.576295 -1.635693 -0.420825 -3.684548 0.521225 -0.983608 -82.003511 -79.247229 -100.775719 -7.140601 3.961190 -25.646937 -15.034694 -15.139324 1.021226 17.929004 13.767430 0.858766 24.581444 86.262571 -153.716522 -0.391359 -9.845345 31.075073 -21.681356 20.440767 -1.454699 19.597500 -14.732242 -24.167970 
-30.363791 91.419922 263.865906 88.223067 6.270138 88.760043 -175.897807 -9.200389 173.644842 -18.535040 -2.550434 -2.627121 86.898352 0.963061 -5.128100 21.454553 0.003094 0.000001 -176.221189 0.315319 176.454167 -17.614208 3.996444 14.946728 85.421139 -9.552252 5.067247 21.454560 -0.003102 -0.000018 6.586459 0.500062 0.390792 3.163668 1.005481 0.792857 2.845560 1.010376 0.786764 0.293868 -1.486656 -0.497675 -3.384585 0.370290 -0.985514 -82.363790 -79.207668 -100.417332 -7.188998 4.006317 -25.679995 -15.011789 -15.101640 1.021230 17.915981 13.889399 0.919132 25.100865 86.262516 -153.200665 -0.495524 -9.934303 31.004756 -21.638634 20.416520 -1.454690 19.682691 -14.960233 -24.193430 
-30.361309 91.417168 263.797089 88.214728 6.255674 88.717942 -175.961519 -9.215385 173.619010 -18.570504 -2.566577 -2.628507 86.899267 0.966846 -5.113859 21.454550 0.003085 0.000001 -176.301922 0.305208 176.443935 -17.648642 3.983394 14.929620 85.422116 -9.542092 5.059530 21.454560 -0.003112 -0.000017 6.591929 0.500065 0.390793 3.174609 1.000898 0.795127 2.856491 1.005812 0.789068 0.137211 -1.318635 -0.543301 -3.100404 0.268744 -0.961537 -82.827614 -79.144960 -99.957127 -7.285608 4.039210 -25.748642 -15.017318 -15.089208 1.021241 17.957636 14.042898 0.975215 25.848644 86.258015 -152.458046 -0.584736 -10.031371 30.928066 -21.597248 20.395189 -1.454692 19.773000 -15.181948 -24.259118 
-30.356960 91.411957 263.732208 88.199408 6.262069 88.676285 -176.014822 -9.233312 173.607153 -18.631381 -2.578791 -2.638339 86.915837 0.976302 -5.104189 21.454555 0.003102 0.000002 -176.362438 0.291196 176.460574 -17.691385 3.965072 14.897034 85.423380 -9.520614 5.053748 21.454562 -0.003104 -0.000018 6.598713 0.500069 0.397283 3.188238 0.997356 0.808123 2.870125 1.002359 0.802079 0.126859 -1.136285 -0.587996 -2.905369 0.261061 -0.953478 -83.292101 -79.060765 -99.498152 -7.445044 4.084330 -25.807238 -15.065201 -15.107632 1.021238 17.995013 14.118451 0.971678 26.594735 86.248712 -151.717039 -0.622642 -10.145120 30.868774 -21.579262 20.393172 -1.454684 19.873392 -15.442054 -24.368066 
